<?xml version="1.0" encoding="utf-8"?>
<!-- Generator: Adobe Illustrator 18.1.1, SVG Export Plug-In . SVG Version: 6.00 Build 0)  -->
<svg version="1.1" id="Layer_1" xmlns="http://www.w3.org/2000/svg" xmlns:xlink="http://www.w3.org/1999/xlink" x="0px" y="0px"
	 viewBox="7.5 519.6 936 343.5" enable-background="new 7.5 519.6 936 343.5" xml:space="preserve">
<g>
	<path fill="none" d="M291.3,750.5c0.5-2.5,0.9-4.5,1.2-5.8c-7.3,6.9-13.3,13.2-17.9,19c-4.6,5.8-8.2,11.1-10.7,15.9
		c1.8,2.5,3.8,4.1,6,5s4.3,1.2,6.3,1c2.1-0.2,4-0.6,5.8-1.3c1.8-0.7,3.2-1.4,4.3-2.1c0.4-4.1,0.9-8.1,1.5-12
		c0.6-3.9,1.2-7.5,1.8-10.8C290.2,755.9,290.8,753,291.3,750.5z"/>
	<path fill="none" d="M431.1,612.3c0.7,0.3,1.3,0.2,2.2-0.2c0.8-0.4,1.6-1.3,2.5-2.6c0.9-1.3,1.8-3.2,2.8-5.7s2.1-5.7,3.2-9.5
		c1.2-3.8,2.4-8.5,3.7-13.9c-0.9-1.1-2-1.7-3.1-1.6c-1.2,0.1-2.4,1.2-3.8,3.2c-1.4,2.1-2.8,5.4-4.4,10c-1.6,4.5-3.2,10.7-5,18.6
		C429.9,611.4,430.5,612,431.1,612.3z"/>
	<path fill="none" d="M456.9,612.3c0.7,0.3,1.3,0.2,2.2-0.2c0.8-0.4,1.6-1.3,2.5-2.6c0.9-1.3,1.8-3.2,2.8-5.7s2.1-5.7,3.2-9.5
		c1.2-3.8,2.4-8.5,3.7-13.9c-0.9-1.1-2-1.7-3.1-1.6c-1.2,0.1-2.4,1.2-3.8,3.2c-1.4,2.1-2.8,5.4-4.4,10c-1.6,4.5-3.2,10.7-5,18.6
		C455.7,611.4,456.3,612,456.9,612.3z"/>
	<path fill="none" d="M316.5,724.7c-7.8-2.2-21.8-11.7-27.6-19.2c-2.3,4.3-4.5,7.4-5.6,10.9c-2,5.8-5.3,7.8-11.5,7.4
		c-10.7-0.7-21.5-0.2-32.2-0.2c-16.5,0-29,11.5-29.4,28.1c-0.5,23.6-0.5,47.4,0,71c0.3,14.8,11.5,27.7,25.9,28.1
		c25.6,0.7,51.2,0.3,76.6-0.8c13.9-0.7,24.9-13,25.1-27.1c0.3-23.4,0.3-46.7,0-70.2C337.6,738.5,329.4,728.4,316.5,724.7z
		 M298.9,829.6c-2.7,0-4.9-0.7-6.7-2.2s-3.2-3.7-4.2-6.5c-1-2.8-1.7-6-2.2-9.7s-0.7-7.6-0.6-11.8c0-4.2,0.3-8.5,0.7-12.9
		c-1.3,0.6-2.9,1.1-4.8,1.7c-1.9,0.5-3.9,0.8-6.1,0.7s-4.3-0.5-6.6-1.3c-2.2-0.8-4.3-2.4-6.3-4.6c-2.1,4.3-3.5,8.3-4.2,11.8
		c-0.7,3.5-1,6.5-1,9.1c0,2.6,0.3,4.8,0.7,6.5c0.4,1.8,0.7,3.2,0.9,4.1c-3.8-2-6.5-4.4-8-7.3c-1.5-2.9-2.3-6.1-2.1-9.6
		c0.2-3.5,1-7.2,2.5-11c1.5-3.9,3.4-7.8,5.7-11.7c-2-2.7-4.1-4.7-6.5-6.1s-4.7-2-6.9-1.7c-2.2,0.3-4.2,1.6-5.8,3.8
		c-1.7,2.3-2.6,5.7-3,10.4c-0.4-4.4,0.2-8.1,1.8-11c1.6-2.9,3.7-4.8,6.2-5.8c2.5-1,5.3-1,8.3,0s5.8,3.2,8.2,6.6
		c2.8-4.3,5.7-8.4,8.8-12.3c3.1-3.9,6-7.3,8.7-10.3c3.2-3.5,6.3-6.8,9.3-9.8l10.7,2.2c-4.2,18.7-6.6,34.9-7.5,48.5
		c-0.3,3.8-0.4,7.6-0.4,11.3c0,3.7,0.3,7.2,0.7,10.3c0.5,3.2,1.2,6,2.1,8.5c0.9,2.5,2.2,4.4,3.7,5.9c1.5,1.5,3.4,2.3,5.5,2.6
		c2.2,0.3,4.8-0.2,7.8-1.5C304.7,828.5,301.5,829.6,298.9,829.6z"/>
	<path fill="none" d="M508.5,595.1c1.9,0.7,3.8,1,5.6,0.9c1.8-0.1,3.5-0.5,5.1-1.2c1.6-0.7,2.8-1.3,3.8-1.8
		c0.3-3.6,0.8-7.2,1.3-10.6c0.5-3.5,1.1-6.7,1.6-9.6s1-5.5,1.5-7.8s0.8-4,1.1-5.2c-6.5,6.1-11.8,11.7-15.8,16.8
		c-4,5.1-7.2,9.8-9.5,14.1C504.8,592.9,506.6,594.4,508.5,595.1z"/>
	<path fill="none" d="M589.5,600c-1.1,1.6-1.8,3.2-2.2,4.8c-0.3,1.6-0.1,2.9,0.8,4c0.8,1,1.9,1.7,3.2,2.1c1.3,0.4,2.7,0.3,4-0.2
		s2.4-1.5,3.4-2.9c1-1.5,1.5-3.5,1.7-6.2c0.1-2.1-0.1-4-0.5-5.8c-0.5-1.8-0.9-3.2-1.5-4.5c-1.7,1-3.3,2.3-4.9,3.8
		C592,596.8,590.7,598.4,589.5,600z"/>
	<path fill="none" d="M40.6,657.6c7.8,2.3,22,11.9,27.6,19.3c2.3-4.3,4.5-7.4,5.6-10.9c2-5.8,5.3-7.8,11.5-7.4
		c10.7,0.7,21.5,0.2,32.2,0.2c16.5,0,29-11.5,29.4-28.1c0.5-23.6,0.5-47.4,0-71c-0.3-14.8-11.5-27.7-25.9-28.1
		c-25.6-0.7-51.2-0.3-76.6,0.8c-13.9,0.5-24.8,13-25.1,26.9c-0.3,23.4-0.3,46.7,0,70.2C19.5,643.8,27.7,653.8,40.6,657.6z
		 M55.5,621.7c2.2,2.7,4.4,4.8,6.9,6.6c2.5,1.7,5.1,2.8,7.8,3.2c2.8,0.4,5.7-0.2,8.8-1.8c3.1-1.6,6.3-4.4,9.7-8.5
		c3.4-4,7-9.6,10.7-16.8c1.1-2.1,1.5-3.9,1.2-5.3s-1.2-2.7-2.4-3.7c-1.3-1-2.9-1.7-4.8-2.3c-2-0.6-4-1-6.2-1.3
		c-2.2-0.3-4.3-0.5-6.4-0.5c-2.1-0.1-3.9-0.1-5.5-0.1c-1.2,0-2.7-0.1-4.5-0.3s-3.7-0.6-5.5-1.2c-1.8-0.6-3.5-1.3-4.9-2.3
		s-2.3-2.2-2.8-3.7c-0.4-1.5-0.2-3.3,0.8-5.3c1-2.1,3-4.5,6.1-7.3c3.1-2.8,7.3-6,12.8-9.6c5.5-3.6,12.5-7.7,21.1-12.1
		c1.1,3.9,2.4,6.8,3.8,8.8c1.4,1.9,2.8,3.3,4.2,4c1.5,0.9,3.1,1.3,4.7,1.2c-1.8,1.8-3.4,3.2-5,4s-3.1,1.4-4.5,1.5
		c-1.4,0.2-2.8,0-4-0.4c-1.3-0.4-2.4-1-3.5-1.8c-2.5-1.7-4.7-4.3-6.6-7.8c-6.5,3.4-11.4,6.5-14.7,9.3c-1.4,1.2-2.5,2.4-3.3,3.6
		c-0.8,1.2-1.1,2.3-0.8,3.3c0.3,1,1.3,1.9,2.9,2.7c1.7,0.8,4.3,1.4,7.9,1.7c7.2,0.8,13,1.6,17.7,2.5c4.6,0.9,7.9,2.3,9.9,4.2
		c2,1.9,2.7,4.5,2,7.9c-0.7,3.3-2.8,7.9-6.2,13.5c-4.5,7.5-9.1,13.6-13.8,18.2c-4.7,4.7-9.3,7.5-13.9,8.4c-4.5,1-9-0.2-13.3-3.5
		c-4.3-3.3-8.4-9.1-12.3-17.6C51.4,616.3,53.4,619.1,55.5,621.7z"/>
	<path fill="none" d="M318.5,593.4v-2.5c-0.7,1.9-1.3,3.7-2,5.6L318.5,593.4z"/>
	<path fill="none" d="M317.9,607.1c0.2,0.3,0.4,0.5,0.6,0.7V599l-2.7,4.7C316.5,605,317.2,606.1,317.9,607.1z"/>
	<path fill="none" d="M146.6,752.8c-0.2-17.8-11.1-29.5-28.9-30c-22.6-0.7-45.1-0.7-67.7,0c-18.7,0.5-29.5,12.4-29.7,31.2
		c0,21.8,0,43.4,0,65.2c0,17.7,11.9,30.2,29.7,30.4c22.6,0.3,45.1,0.3,67.7,0c16.8-0.3,28.7-12.5,28.9-29.4c0-3.3,0-6.4,0-9.6
		c6.3-2.8,12-5.3,19.8-8.7c-7.9-3.6-13.7-6.4-19.8-9.4C146.6,779.3,146.8,766.1,146.6,752.8z M112.8,768.2c-0.5,2.2-1.2,3.9-1.8,5.2
		c-0.7,1.2-1.5,2-2.3,2.5s-1.7,0.7-2.5,0.6s-1.7-0.4-2.5-0.8c-1.9-1-3.9-3-6-5.8c1.7,2,3.3,3.3,4.8,3.9c0.7,0.3,1.3,0.4,2,0.4
		s1.3-0.2,1.9-0.7c0.6-0.4,1.2-1.2,1.8-2.2c0.5-1,1-2.4,1.4-4.1c0.6-2.9,0.7-5.6,0.5-8c-0.3-2.4-0.7-4.5-1.2-6.2
		c-0.7-2-1.5-3.8-2.5-5.5c-4.9,1.6-9.5,3.8-13.9,6.6c-1.9,1.2-3.8,2.6-5.7,4.2c-1.9,1.6-3.8,3.4-5.5,5.5c-1.8,2-3.4,4.3-4.8,6.8
		c-1.5,2.5-2.7,5.3-3.7,8.4c-1.2,3.8-2,7.5-2.7,10.9c-0.6,3.4-0.9,6.6-1,9.5c-0.1,2.9,0,5.7,0.3,8.1c0.3,2.5,0.7,4.7,1.1,6.7
		c1.1,4.6,2.7,8.7,4.9,12c1.8-0.1,3.8-0.8,6.1-1.8c1.9-0.9,4.2-2.4,6.8-4.4c2.7-2,5.6-4.9,8.8-8.6c-1,2.4-2.3,4.5-3.7,6.4
		c-1.4,1.8-2.9,3.5-4.5,4.9c-1.6,1.4-3.2,2.6-4.8,3.6c-1.6,1-3.2,1.8-4.8,2.5c-3.7,1.6-7.5,2.5-11.5,2.8c-3.2-3.5-5.7-7.7-7.3-12.8
		c-0.7-2.2-1.3-4.6-1.8-7.4c-0.5-2.8-0.7-5.8-0.7-9.2s0.3-7,1-11c0.7-4,1.8-8.3,3.3-12.9c1.5-4.6,3.3-8.6,5.3-12.2
		c2-3.5,4.2-6.7,6.5-9.4s4.7-5,7.1-6.8c2.4-1.8,4.8-3.5,7-4.7c5.4-3,11-4.8,16.8-5.6c2.2,2.2,4.1,4.8,5.6,7.7c1.3,2.5,2.3,5.5,2.9,9
		C114.1,759.7,113.9,763.7,112.8,768.2z"/>
	<path fill="none" d="M804,714c-2.3,0.2-4.8,2.3-7.5,6.4c-2.7,4.1-5.7,10.7-8.8,19.7c-3.1,9-6.4,21.3-9.8,36.8
		c1.1,1.6,2.3,2.7,3.5,3.3c1.3,0.6,2.7,0.5,4.2-0.4c1.6-0.8,3.2-2.6,5-5.2c1.8-2.6,3.7-6.4,5.7-11.3c2-4.9,4.2-11.2,6.4-18.7
		c2.3-7.5,4.7-16.7,7.3-27.5C808.3,714.9,806.2,713.9,804,714z"/>
	<path fill="none" d="M318.5,611.4c-1.2-1.4-2.4-3.4-3.7-5.9l-0.8,1.5c-0.9,4.7-1.5,9.2-1.7,13.5c-0.2,4.3-0.2,8.4,0.3,12.2
		c0.4,3.8,1.1,7.2,2,10.3c0.9,3.1,2.1,5.7,3.5,7.9l-10.9-10.5c-1.4-7.2-2-14.7-1.8-22.3c0-1,0-2,0.1-3.1c-1.7,1-3.2,1.6-4.6,1.9
		c-2.3,0.5-4.1-0.1-5.3-1.6c-1.2-1.5-1.9-4-2.1-7.6c-0.1-3.5,0.4-8,1.6-13.5c-1.6,3.2-3.2,6-4.9,8.5c-1.7,2.5-3.2,4.7-4.6,6.5
		c-1.6,2.1-3.2,3.9-4.7,5.6l-5.3-5.6c0.2-4.2,0.7-8.4,1.5-12.6c0.3-1.8,0.8-3.7,1.3-5.7c0.5-2,1.1-4,1.9-6c0.7-2,1.6-4,2.6-5.9
		c1-2,2.1-3.8,3.4-5.6l6.7,4.7c-1.7,2.6-3.2,5.5-4.6,8.5c-1.2,2.7-2.3,5.7-3.4,9.2s-1.8,7.1-2,10.9c0.8-0.8,1.9-1.9,3.1-3.3
		c1.2-1.4,2.5-3,3.8-5c1.3-2,2.7-4.2,4.1-6.8c1.4-2.6,2.7-5.5,4-8.8c0.5-1.5,0.9-3,1.5-4.6c0.5-1.6,1-3.2,1.6-4.8l7,4.9
		c-0.6,0.8-1.3,2.1-2.1,3.8c-0.8,1.7-1.5,3.7-2.3,5.9c-0.7,2.2-1.4,4.5-2,7c-0.6,2.5-1.1,4.8-1.4,7.1c-0.3,2.3-0.5,4.4-0.4,6.3
		c0,1.9,0.4,3.3,1.1,4.4s1.7,1.6,3,1.7c0.5,0,1-0.1,1.6-0.2c0.1-2.1,0.3-4.3,0.5-6.5c0.4-3.7,1.1-7.5,2-11.3
		c0.9-3.8,2.2-7.7,3.7-11.7c1.5-3.9,3.4-7.8,5.7-11.7l1,0.6v-7.5h18.3c0-1,0-2.1,0-3.2c0-17.7-11.9-30.2-29.7-30.4
		c-22.6-0.3-45.1-0.3-67.7,0c-16.8,0.3-28.7,12.5-28.9,29.4c0,3.3,0,6.4,0,9.6c-6.3,2.8-12,5.3-19.8,8.7c7.9,3.6,13.9,6.4,19.8,9.4
		c0,13.2-0.2,26.4,0,39.6c0.2,17.8,11.1,29.5,28.9,30c22.6,0.7,45.1,0.7,67.7,0c18.7-0.5,29.5-12.4,29.7-31.2c0-2.7,0-5.4,0-8.1
		h-18.3L318.5,611.4L318.5,611.4z M272.6,597.1c-3.3,5.5-6.6,9.8-10,13.2c-3.4,3.4-6.8,5.4-10.1,6.1c-3.3,0.7-6.5-0.2-9.7-2.5
		c-3.2-2.4-6.1-6.6-8.9-12.8c1.3,2.2,2.8,4.2,4.3,6.1c1.5,1.9,3.2,3.5,5,4.8c1.8,1.2,3.7,2,5.7,2.3c2,0.3,4.1-0.1,6.4-1.3
		c2.2-1.2,4.6-3.2,7.1-6.2c2.5-2.9,5-7,7.7-12.2c0.8-1.5,1.1-2.8,0.8-3.9c-0.3-1.1-0.8-2-1.8-2.7c-0.9-0.7-2.1-1.3-3.5-1.7
		c-1.4-0.4-2.9-0.7-4.5-0.9c-1.6-0.2-3.1-0.3-4.7-0.4c-1.5,0-2.8-0.1-4-0.1c-0.9,0-2-0.1-3.3-0.2c-1.3-0.2-2.7-0.4-4-0.8
		c-1.3-0.4-2.5-1-3.5-1.7c-1-0.7-1.7-1.6-2-2.7c-0.3-1.1-0.1-2.4,0.6-3.9c0.7-1.5,2.2-3.3,4.4-5.3c2.2-2,5.3-4.3,9.3-7
		c4-2.6,9.1-5.5,15.3-8.8c0.8,2.8,1.7,5,2.8,6.4c1,1.4,2,2.4,3,2.9c1.1,0.7,2.3,0.9,3.4,0.8c-1.3,1.3-2.5,2.3-3.6,2.9
		c-1.2,0.7-2.2,1-3.3,1.1c-1,0.1-2,0-2.9-0.3c-0.9-0.3-1.8-0.7-2.5-1.3c-1.8-1.3-3.4-3.2-4.8-5.7c-4.7,2.5-8.3,4.8-10.7,6.8
		c-1,0.9-1.8,1.7-2.4,2.6c-0.6,0.9-0.8,1.7-0.6,2.4c0.2,0.7,0.9,1.4,2.2,2c1.2,0.6,3.1,1,5.7,1.3c5.2,0.6,9.5,1.2,12.8,1.8
		c3.3,0.7,5.8,1.7,7.2,3c1.5,1.4,1.9,3.3,1.4,5.7C276.6,589.6,275.1,592.9,272.6,597.1z"/>
	<path fill="none" d="M898.5,739c-3.3,2-6.5,4.5-9.7,7.5c-3.1,3-5.8,6.2-7.9,9.3c-2.2,3.2-3.6,6.4-4.3,9.5s-0.2,5.7,1.5,7.8
		c1.6,2,3.8,3.4,6.4,4.2c2.7,0.8,5.3,0.7,7.8-0.3c2.6-1,4.8-2.9,6.8-5.7c2-2.9,3-6.9,3.2-12.2c0.2-4.1-0.2-7.9-1-11.4
		C900.5,744.4,899.5,741.4,898.5,739z"/>
	<path fill="none" d="M584.5,588.1c-1.2-0.8-2-1.8-2.4-3.3c-0.4-1.4-0.7-2.7-0.7-3.9c-1.3,1.9-2.5,4-3.4,6.1
		c-0.9,2.2-1.7,4.3-2.3,6.4c0.8-0.7,2-1.5,3.4-2.4C580.7,590.1,582.4,589.1,584.5,588.1z"/>
	<path fill="none" d="M695.2,588.1c-1.2-0.8-2-1.8-2.4-3.3c-0.4-1.4-0.7-2.7-0.7-3.9c-1.3,1.9-2.5,4-3.4,6.1
		c-0.9,2.2-1.7,4.3-2.3,6.4c0.8-0.7,2-1.5,3.4-2.4C691.3,590.1,693.1,589.1,695.2,588.1z"/>
	<path fill="none" d="M613.8,610.6c0.6,0.8,1.2,1.4,1.8,1.7s1.3,0.2,2.2-0.2c0.8-0.4,1.6-1.3,2.5-2.6c0.9-1.3,1.8-3.2,2.8-5.7
		c1-2.5,2.1-5.7,3.2-9.5c1.2-3.8,2.4-8.5,3.7-13.9c-0.9-1.1-2-1.7-3.1-1.6c-1.2,0.1-2.4,1.2-3.8,3.2s-2.8,5.4-4.4,10
		C617.2,596.6,615.5,602.8,613.8,610.6z"/>
	<path fill="none" d="M606,739c-3.3,2-6.5,4.5-9.7,7.5c-3.1,3-5.8,6.2-7.9,9.3c-2.2,3.2-3.6,6.4-4.3,9.5s-0.2,5.7,1.5,7.8
		c1.6,2,3.8,3.4,6.4,4.2c2.7,0.8,5.3,0.7,7.8-0.3c2.6-1,4.8-2.9,6.8-5.7c2-2.8,3-6.9,3.2-12.2c0.2-4.1-0.2-7.9-1-11.4
		C607.9,744.4,607,741.4,606,739z"/>
	<path fill="#8DC63F" d="M198,629.6c0.3,24.9,17.3,42.6,42.3,43.1c22.6,0.5,45.1,0.5,67.7,0c23.9-0.5,41.8-19,41.9-42.8
		c0-3.2,0-6.4,0-9.6h-13c0,2.7,0,5.4,0,8.1c-0.2,18.8-11.1,30.7-29.7,31.2c-22.6,0.7-45.1,0.7-67.7,0c-17.8-0.5-28.7-12.2-28.9-30
		c-0.2-13.2,0-26.4,0-39.6c-6-3-11.9-5.8-19.8-9.4c7.8-3.5,13.5-6,19.8-8.7c0-3.2,0-6.3,0-9.6c0.2-16.8,12-29,28.9-29.4
		c22.6-0.3,45.1-0.3,67.7,0c17.8,0.2,29.7,12.7,29.7,30.4c0,1,0,2.1,0,3.2h13.1c0-1.1,0-2.2,0-3.3c-0.2-23.8-17.3-42.3-40.9-42.9
		c-23.4-0.7-46.9-0.5-70.2,0c-19.3,0.5-36.5,12-38.6,30.5c-1.8,15-11.1,18.8-21.5,23.8c-3.5,1.8-6.9,3.5-11.1,5.6
		c8.9,4.8,17.2,8.7,24.8,13.5c2.7,1.7,5.1,5.6,5.3,8.7C198.5,611.4,197.8,620.5,198,629.6z"/>
	<path fill="#00AEEF" d="M7.8,627.4C7.9,651,23.5,667.8,46.6,671c3,0.5,6.8,3.2,8.4,5.8c4.3,6.9,7.6,14.3,12,23.1
		c4.3-8.1,7.9-14.7,11.4-21.6c2.7-5.5,6.4-7.9,12.9-7.4c8.3,0.7,16.5,0.2,24.8,0.2c21.5-0.2,40.1-14.3,41.8-35.7
		c2.2-25.3,2.3-51,1-76.4c-1.3-23.8-20.8-40-44.4-39.1c-21,0.8-41.9,1.2-62.7-0.2c-20.3-1.3-44.9,18-44.1,43.4
		C8.3,584.5,7.6,605.9,7.8,627.4z M19.3,559.4c0.3-13.9,11.2-26.4,25.1-26.9c25.4-1.2,51-1.5,76.6-0.8c14.3,0.3,25.6,13.2,25.9,28.1
		c0.5,23.6,0.5,47.4,0,71c-0.3,16.5-12.9,28.1-29.4,28.1c-10.7,0-21.5,0.5-32.2-0.2c-6.3-0.3-9.6,1.7-11.5,7.4
		c-1.2,3.5-3.3,6.6-5.6,10.9c-5.6-7.4-19.8-17-27.6-19.3c-12.9-3.8-21.1-13.9-21.3-28.1C19,606.1,19,582.8,19.3,559.4z"/>
	<path fill="#EE2A7B" d="M159.8,780.3c-0.8-9.1-0.2-18.2-0.3-27.2c-0.3-24.9-17.3-42.6-42.3-43.1c-22.6-0.5-45.1-0.5-67.7,0
		c-23.9,0.5-41.8,19-41.9,42.8c0,22.3-0.2,44.6,0,66.9c0.2,23.6,17.3,42.1,40.8,42.8c23.4,0.7,46.9,0.5,70.2,0
		c19.3-0.5,36.5-12,38.6-30.5c1.8-15,11.1-18.8,21.5-23.8c3.5-1.8,6.9-3.5,11.1-5.6c-8.9-4.8-17.2-8.7-24.6-13.4
		C162.5,787.4,160,783.4,159.8,780.3z M146.6,810.7c0,3.2,0,6.3,0,9.6c-0.2,16.8-12,29-28.9,29.4c-22.6,0.3-45.1,0.3-67.7,0
		c-17.8-0.2-29.7-12.7-29.7-30.4c0-21.8,0-43.4,0-65.2c0.2-18.8,11.1-30.7,29.7-31.2c22.6-0.7,45.1-0.7,67.7,0
		c17.8,0.5,28.7,12.2,28.9,30c0.2,13.2,0,26.4,0,39.6c6.1,3,11.9,5.8,19.8,9.4C158.7,805.4,152.9,807.9,146.6,810.7z"/>
	<path fill="#F7941E" d="M349.5,755.2c-0.2-23.6-15.5-40.4-38.8-43.7c-3-0.5-6.8-3.2-8.4-5.8c-4.3-6.9-7.6-14.3-12-23.1
		c-4.5,8.1-8.1,14.7-11.4,22c-2.7,5.5-6.4,7.9-12.9,7.4c-8.3-0.7-16.5-0.2-24.8-0.2c-21.6,0.2-40.1,14.3-41.8,35.5
		c-2.2,25.3-2.3,51-1,76.4c1.2,23.8,20.8,40,44.4,39.1c21-0.8,41.9-1.2,62.7,0.2c20.3,1.3,44.9-18,44.1-43.4
		C349,798.1,349.7,776.6,349.5,755.2z M337.8,822.9c-0.2,14-11.2,26.4-25.1,27.1c-25.4,1.2-51,1.5-76.6,0.8
		c-14.3-0.3-25.6-13.2-25.9-28.1c-0.5-23.6-0.5-47.4,0-71c0.3-16.5,12.9-28.1,29.4-28.1c10.7,0,21.5-0.5,32.2,0.2
		c6.3,0.3,9.6-1.7,11.5-7.4c1.2-3.5,3.3-6.6,5.6-10.9c5.8,7.4,19.8,17,27.6,19.2c12.9,3.8,21.1,13.9,21.3,28.1
		C338.1,776.2,338.1,799.4,337.8,822.9z"/>
	<path fill="#A30485" d="M61.9,630.9c4.3,3.3,8.8,4.4,13.3,3.5c4.5-1,9.2-3.7,13.9-8.4s9.3-10.7,13.8-18.2
		c3.4-5.7,5.5-10.2,6.2-13.5c0.7-3.3,0-6-2-7.9c-2-1.9-5.3-3.3-9.9-4.2s-10.5-1.7-17.7-2.5c-3.6-0.3-6.2-0.9-7.9-1.7
		c-1.7-0.8-2.7-1.7-2.9-2.7c-0.3-1,0-2.2,0.8-3.3c0.8-1.2,1.9-2.4,3.3-3.6c3.3-2.8,8.2-5.9,14.7-9.3c2,3.4,4.2,6,6.6,7.8
		c1,0.8,2.2,1.4,3.5,1.8c1.3,0.4,2.6,0.6,4,0.4c1.4-0.2,2.9-0.7,4.5-1.5s3.2-2.2,5-4c-1.6,0.2-3.2-0.2-4.7-1.2
		c-1.3-0.8-2.7-2.1-4.2-4c-1.4-1.9-2.7-4.8-3.8-8.8c-8.6,4.5-15.7,8.5-21.1,12.1c-5.5,3.6-9.7,6.8-12.8,9.6
		c-3.1,2.8-5.1,5.3-6.1,7.3c-1,2.1-1.3,3.9-0.8,5.3c0.4,1.5,1.3,2.7,2.8,3.7s3.1,1.8,4.9,2.3c1.8,0.6,3.7,1,5.5,1.2
		c1.8,0.2,3.3,0.3,4.5,0.3c1.5,0,3.3,0,5.5,0.1c2.1,0.1,4.2,0.2,6.4,0.5c2.2,0.3,4.2,0.7,6.2,1.3c2,0.6,3.6,1.3,4.8,2.3
		c1.3,1,2.1,2.2,2.4,3.7c0.3,1.5,0,3.3-1.2,5.3c-3.7,7.2-7.3,12.7-10.7,16.8c-3.4,4-6.7,6.8-9.7,8.5c-3.1,1.6-6,2.2-8.8,1.8
		c-2.8-0.4-5.4-1.5-7.8-3.2c-2.5-1.7-4.7-3.9-6.9-6.6c-2.2-2.7-4.1-5.5-5.9-8.4C53.4,621.8,57.5,627.6,61.9,630.9z"/>
	<path fill="#A30485" d="M110.5,747.2c-1.5-2.9-3.3-5.5-5.6-7.7c-5.8,0.7-11.4,2.6-16.8,5.6c-2.3,1.3-4.7,2.9-7,4.7
		c-2.4,1.8-4.8,4.2-7.1,6.8c-2.3,2.7-4.5,5.8-6.5,9.4c-2,3.6-3.8,7.6-5.3,12.2c-1.6,4.7-2.7,9-3.3,12.9c-0.7,4-1,7.7-1,11
		c0,3.3,0.2,6.4,0.7,9.2s1.1,5.2,1.8,7.4c1.7,5.1,4.2,9.4,7.3,12.8c4-0.3,7.8-1.3,11.5-2.8c1.6-0.7,3.2-1.5,4.8-2.5
		c1.6-1,3.2-2.2,4.8-3.6c1.6-1.4,3-3,4.5-4.9c1.4-1.8,2.6-4,3.7-6.4c-3.2,3.7-6.1,6.6-8.8,8.6c-2.7,2-4.9,3.5-6.8,4.4
		c-2.2,1.1-4.2,1.7-6.1,1.8c-2.2-3.4-3.8-7.4-4.9-12c-0.5-2-0.8-4.2-1.1-6.7c-0.3-2.5-0.4-5.2-0.3-8.1c0.1-2.9,0.4-6.1,1-9.5
		c0.6-3.4,1.5-7,2.7-10.9c1-3.1,2.2-5.8,3.7-8.4c1.5-2.5,3.1-4.8,4.8-6.8c1.8-2,3.6-3.9,5.5-5.5c1.9-1.6,3.8-3,5.7-4.2
		c4.4-2.8,9-5,13.9-6.6c1,1.6,1.9,3.5,2.5,5.5c0.5,1.8,0.9,3.8,1.2,6.2c0.3,2.4,0.1,5-0.5,8c-0.4,1.7-0.9,3-1.4,4.1
		c-0.5,1-1.2,1.7-1.8,2.2c-0.6,0.4-1.3,0.7-1.9,0.7s-1.3-0.1-2-0.4c-1.5-0.7-3.1-2-4.8-3.9c2.1,2.8,4.1,4.7,6,5.8
		c0.8,0.5,1.6,0.7,2.5,0.8c0.9,0.1,1.7-0.1,2.5-0.6c0.8-0.5,1.6-1.3,2.3-2.5c0.7-1.2,1.3-2.9,1.8-5.2c1-4.4,1.2-8.4,0.6-12
		C112.8,752.7,111.8,749.7,110.5,747.2z"/>
	<path fill="#A30485" d="M300.6,828c-2.2-0.3-4-1.1-5.5-2.6c-1.5-1.5-2.7-3.4-3.7-5.9c-0.9-2.5-1.6-5.3-2.1-8.5s-0.7-6.6-0.7-10.3
		c0-3.7,0.1-7.5,0.4-11.3c0.8-13.7,3.3-29.8,7.5-48.5l-10.7-2.2c-3,3-6.2,6.3-9.3,9.8c-2.7,3-5.6,6.4-8.7,10.3
		c-3.1,3.9-6,8-8.8,12.3c-2.5-3.4-5.2-5.6-8.2-6.6c-3-1-5.8-1-8.3,0c-2.5,1-4.6,3-6.2,5.8c-1.6,2.9-2.2,6.6-1.8,11
		c0.3-4.7,1.3-8.1,3-10.4c1.7-2.3,3.6-3.5,5.8-3.8c2.2-0.3,4.5,0.3,6.9,1.7c2.4,1.4,4.6,3.5,6.5,6.1c-2.3,3.9-4.2,7.8-5.7,11.7
		c-1.5,3.9-2.3,7.5-2.5,11c-0.2,3.5,0.6,6.7,2.1,9.6c1.5,2.9,4.2,5.4,8,7.3c-0.2-1-0.5-2.3-0.9-4.1c-0.4-1.8-0.7-4-0.7-6.5
		c-0.1-2.6,0.3-5.6,1-9.1c0.7-3.5,2.1-7.4,4.2-11.8c2,2.2,4,3.7,6.3,4.6c2.2,0.8,4.4,1.3,6.6,1.3c2.2,0,4.2-0.2,6.1-0.7
		c1.9-0.5,3.5-1.1,4.8-1.7c-0.4,4.3-0.6,8.7-0.7,12.9c-0.1,4.2,0.2,8.2,0.6,11.8c0.5,3.7,1.2,6.9,2.2,9.7c1,2.8,2.4,5,4.2,6.5
		c1.8,1.5,4,2.2,6.7,2.2c2.7-0.1,5.8-1.1,9.5-3.1C305.4,827.8,302.8,828.3,300.6,828z M287.8,770.1c-0.6,3.9-1.1,7.9-1.5,12
		c-1.1,0.6-2.5,1.3-4.3,2.1c-1.8,0.7-3.7,1.2-5.8,1.3c-2.1,0.2-4.2-0.2-6.3-1c-2.2-0.8-4.2-2.5-6-5c2.6-4.8,6.2-10.1,10.7-15.9
		c4.6-5.8,10.5-12.1,17.9-19c-0.3,1.4-0.7,3.3-1.2,5.8c-0.5,2.5-1.1,5.5-1.7,8.8C289,762.6,288.4,766.2,287.8,770.1z"/>
	<path d="M377.7,806c-2.8-3-4.2-7.6-4.2-13.7c0-6.2,0.9-13,2.8-20.8c1.8-7.7,4.3-15.8,7.4-24.5s6.3-16.9,9.7-24.8
		c3.4-8,6.7-15.3,9.9-22c3.2-6.7,5.7-12,7.6-15.8c7,2.6,14,4.8,20.8,6.7c6.8,1.8,13.1,3.2,19,3.9c5.8,0.8,11.1,0.9,15.7,0.5
		c4.6-0.4,8.3-1.5,11-3.3c2.7-1.8,4.3-4.4,4.8-7.8c0.5-3.4-0.5-7.7-3-13c1.1,5.5,0.8,9.5-0.9,12s-4.4,3.8-8,4.2s-8-0.2-13-1.7
		c-5-1.4-10.3-3.2-15.8-5.3c-5.5-2.1-11-4.3-16.4-6.7c-5.4-2.3-10.4-4.3-14.8-6c-6.7-2.4-13.3-3.9-20.1-4.5
		c-6.7-0.6-12.8-0.8-18.3-0.6c-6.3,0.3-12.5,1-18.4,2.3l-28.4,16c7-2.4,14.3-4.2,22-5.3c6.7-1,14.3-1.4,22.9-1.2
		c8.6,0.2,17.5,1.7,26.8,4.5c-5.7,11.1-10.9,22-15.5,32.8c-4.6,10.8-8.5,21-11.8,30.7s-5.7,18.8-7.4,27.2
		c-1.7,8.4-2.5,15.8-2.3,22.2c0.2,6.4,1.3,11.6,3.5,15.5c2.2,4,5.6,6.4,10,7.3c4.5,0.9,10.2,0.1,17.2-2.3c7-2.5,15.4-7,25.3-13.5
		c-10.5,6-18.7,9.5-24.8,10.3C385,810.2,380.5,809,377.7,806z"/>
	<path d="M669,672.1c1.8-3.2,3.5-5.8,5.2-7.8s3.4-3.4,5-4.4c1.6-1,3.1-1.6,4.5-1.9c3.3-0.6,6.6,0.3,9.8,2.9c-4.4-4.9-9-7.7-13.7-8.5
		c-2-0.3-4.1-0.2-6.3,0.5c-2.2,0.6-4.5,1.9-6.8,4c-2.3,2.1-4.6,5-7,8.8c-2.3,3.8-4.6,8.7-6.8,14.7c-4.4,12.2-8.1,23.5-11,33.8
		c-0.4,1.6-0.8,3.1-1.3,4.6c-1.2,0.5-2.5,1.1-3.7,1.6c-3.8,1.7-7.7,3.5-11.6,5.4c-3.9,1.9-7.2,3.6-9.8,5c-0.8-1.6-1.4-2.9-1.8-3.9
		c-0.4-1-0.7-2.1-0.8-3.2c-0.2-2,0.2-4,1.3-5.8c1-1.8,2.3-3.5,3.7-4.9c1.6-1.7,3.4-3.3,5.4-4.7l-9.3-4.7c-1.9,0.7-3.7,1.7-5.4,2.9
		c-1.4,1.1-2.8,2.6-4.3,4.4s-2.5,4.2-3.2,7.1c-0.5,2-0.7,3.8-0.6,5.3c0.1,1.6,0.3,3,0.7,4.5c0.3,1.4,0.8,2.8,1.5,4.2
		c0.7,1.4,1.4,3,2.2,4.7c-3,1.8-6.3,4.3-9.9,7.4c-3.6,3.1-6.7,6.5-9.3,10.1s-4.4,7.3-5.3,11.1s-0.1,7.3,2.3,10.5
		c2.2,2.7,5.1,4.7,8.7,6c0.8,0.3,1.7,0.5,2.5,0.7c-2.9,1.5-5.4,2.3-7.3,2.2c-2.7-0.1-4.7-1.2-6-3.3s-2-5-2.1-8.8
		c-0.1-3.8,0.2-7.9,0.8-12.4c0.7-4.5,1.6-9.2,2.9-14s2.6-9.5,4.1-13.8c1.5-4.3,3-8.2,4.5-11.5c1.5-3.4,2.9-5.8,4.1-7.5l-14-9.7
		l-35.6,60.7c0.9-7,2.4-13.7,4.5-20c2.1-6.3,4.3-11.8,6.5-16.5c2.6-5.5,5.4-10.6,8.3-15.2l-13.3-9.2c-2.5,3.5-4.8,7.2-6.7,11.1
		c-2,3.9-3.7,7.8-5.1,11.7c-1.5,3.9-2.7,7.8-3.7,11.8c-1,3.9-1.8,7.7-2.6,11.2c-1.6,8.3-2.6,16.7-2.9,24.9l5.8,6
		c-2.1,1.3-3.9,2.3-5.5,3c-3.1,1.3-5.6,1.7-7.3,1c-1.8-0.6-2.9-2-3.5-4.2c-0.5-2.2-0.7-4.9-0.5-8c0.2-3.1,0.7-6.5,1.6-10.1
		c0.8-3.6,1.8-7.2,3-10.7c1.1-3.5,2.3-6.7,3.5-9.7c1.2-3,2.2-5.3,3-7.2l-13.9-9.7c-0.1,0.4-0.2,0.8-0.3,1.1
		c-0.1,0.3-0.2,0.7-0.3,1.1v-0.2l-22,40.2c2-9.8,3.9-18,5.7-24.6c1.8-6.7,3.5-12,5-16c1.6-4,3.2-6.9,4.6-8.6
		c1.5-1.7,2.9-2.5,4.3-2.3c1.4,0.2,2.8,1,4.2,2.7c1.3,1.7,2.7,3.8,4.2,6.6l0.6-3.3c-3.5-7.5-6.8-12.5-10-15c-3.1-2.5-6-3.2-8.8-2
		s-5.3,3.6-7.7,7.5c-2,3.3-3.9,7-5.5,11.3c-3.1,4-5.7,6.9-7.7,8.8c-2.6,2.4-4.5,3.6-5.7,3.5c-1.3,0-1.9-1-2-2.8
		c-0.1-1.8,0.1-4,0.7-6.5c0.5-2.5,1.3-5,2.3-7.5s2-4.5,3-6l-13.3-9.2l-0.6-0.5c-0.1,0.4-0.3,0.9-0.5,1.5c-1.1,1.1-2.8,3-5,5.5
		c-2.2,2.6-4.8,6-7.8,10.3c-3,4.3-6.3,9.6-9.9,15.8s-7.2,13.5-10.8,21.9c0.7-6.4,2.1-12.4,4.1-18c2-5.5,4.1-10.3,6.2-14.5
		c2.5-4.8,5.2-9.2,8.2-13l-13.3-9.2c-2.5,3.5-4.8,7.2-6.7,11.1c-2,3.9-3.7,7.8-5.1,11.7c-1.5,3.9-2.7,7.8-3.7,11.8
		c-1,3.9-1.8,7.7-2.6,11.2c-1.6,8.3-2.6,16.7-2.9,24.9l10.6,11l1.2-5.1c1.8-6.7,4.1-13,6.8-19.1c2.7-6.1,5.6-11.7,8.6-17
		c3-5.2,6-10,9-14.2c3-4.2,5.6-7.7,7.9-10.6c-2.7,8.3-3.6,14.7-2.7,19.5c0.9,4.7,3,7.3,6.3,7.8c3.3,0.5,7.4-1.5,12.5-5.7
		c3.8-3.3,7.8-8.1,11.9-14.6c-4.6,12.2-8.6,28.6-12.1,49.1l13.3,9c0-0.1,0-0.2,0.1-0.2c0,0,0.1-0.2,0.1-0.4l0.3,0.9l19.8-39.7
		c-3.2,13-4.6,23.2-4.2,30.5c0.5,7.3,2.2,12.2,5.3,14.4c3.1,2.3,7.3,2.2,12.7-0.4c3.7-1.8,7.8-4.6,12.2-8.5l4.1,4.2l33.5-61.6
		c-4.4,15-7.1,27.5-8.1,37.4s-0.4,17.3,1.7,22.2c2.1,4.8,5.6,7.1,10.6,6.7c4.3-0.3,9.6-2.7,15.8-7.2c2.6,0.5,5.3,0.6,8,0.2
		c3.8-0.5,7.4-2.2,10.9-4.8c3.5-2.6,6.2-6.4,8.2-11.5c1.3-3.4,2-6.7,2-10c0-3.2-0.3-6.3-1-9.1c-0.7-2.9-1.7-5.6-2.8-8.1
		c-1.2-2.5-2.3-4.8-3.4-7c2.1-1.3,5.1-3,9-5c3.9-2,7.7-4,11.5-6c1.2-0.6,2.4-1.2,3.6-1.8c-2.2,8.2-4,15.4-5.4,21.8
		c-2,9-3.5,17.3-4.5,24.8l13.9,25c-0.5-1.6-1-3.3-1.7-5.2c-0.6-1.8-1-4.3-1.3-7.3c-0.3-3-0.2-6.9,0.3-11.6c0.5-4.7,1.5-10.8,3-18.1
		c1.6-7.3,3.9-16.3,7-26.9c3.1-10.6,7.1-23.2,12.2-37.9C665.6,679.4,667.3,675.3,669,672.1z M609.9,759.2c-0.2,5.2-1.3,9.3-3.2,12.2
		c-2,2.9-4.2,4.8-6.8,5.7c-2.6,1-5.2,1-7.8,0.3c-2.7-0.8-4.8-2.2-6.4-4.2c-1.7-2.1-2.2-4.7-1.5-7.8c0.7-3.1,2.2-6.3,4.3-9.5
		s4.8-6.3,7.9-9.3c3.1-3,6.3-5.5,9.7-7.5c1,2.4,2,5.3,2.9,8.8C609.7,751.3,610.1,755.1,609.9,759.2z"/>
	<path d="M751.5,706.8c0,0-0.1,0-0.1,0C751.4,706.9,751.4,706.9,751.5,706.8z"/>
	<path d="M753.5,826.4c-2.7,1.3-5.5,1.2-8.6-0.5c-3.1-1.7-6.2-4.5-9.3-8.5c-3.1-4-5.9-8.5-8.4-13.5c-2.5-5-4.4-10.2-5.7-15.5
		c-1.3-5.3-1.8-10.1-1.3-14.3c0.4-5.2,1.1-10.5,2.1-15.7c1-5.2,2.2-10.4,3.5-15.5s2.8-10.2,4.3-15.3c1.5-5.1,3-10.2,4.5-15.2
		c0.7-0.8,1.7-1.5,3.1-2.2c1.3-0.7,2.8-1.2,4.4-1.7c1.6-0.5,3.2-0.9,4.8-1.1c1.6-0.2,3-0.4,4.4-0.4c0,0,0.1-0.2,0.3-0.4
		c0.3-0.3,0.7-0.7,1-1.1c0.4-0.4,1-0.9,1.7-1.5c-3.3,0.3-6.2,0.2-8.5-0.3c-2-0.4-3.7-1.2-5-2.5c-1.3-1.3-1.5-3.2-0.6-5.8h-0.2
		c1.1-2.7,2.2-5.6,3.1-8.6c1-3,2-6,3-9s2.2-5.9,3.4-8.8c1.2-2.8,2.6-5.4,4.1-7.8l-16.6,7.2c-0.4,0.8-0.8,1.7-1.1,2.6
		c-0.3,0.9-0.7,1.8-1,2.9c-0.3,0.8-0.9,2.3-1.8,4.5c-0.9,2.2-1.9,4.5-3,7c-1,2.5-2,4.8-2.9,7c-0.8,2.2-1.4,3.7-1.7,4.5
		c-0.5,0.8-0.8,1.7-1,2.5s-0.7,1.7-1.4,2.3c-0.8,0.7-2,1.3-3.6,1.7c-1.7,0.5-4.2,0.6-7.5,0.5l-2.7,3c2.4,0,4.5,0.3,6.2,0.8
		c1.4,0.5,2.6,1.2,3.6,2.2c1,1,1.3,2.4,0.8,4.3c-3,10-5.5,19-7.3,27c-1.8,8-3.3,15-4.5,20.7c-1.2,6.7-2.1,12.8-2.6,18.1l1.5,2.8
		c-0.3,0.2-0.6,0.3-0.9,0.4c-3.1,1.3-5.6,1.7-7.3,1c-1.8-0.6-2.9-2-3.5-4.2s-0.7-4.9-0.5-8s0.7-6.5,1.6-10.1c0.8-3.6,1.8-7.2,3-10.7
		c1.1-3.5,2.3-6.7,3.5-9.7c1.2-3,2.2-5.3,3-7.2l-13.9-9.7c-0.1,0.4-0.2,0.8-0.3,1.1c-0.1,0.3-0.2,0.7-0.3,1.1v-0.2l-22,40.2
		c2-9.8,3.9-18,5.7-24.6c1.8-6.7,3.5-12,5-16c1.6-4,3.2-6.9,4.6-8.6c1.5-1.7,2.9-2.5,4.3-2.3c1.4,0.2,2.8,1,4.2,2.7
		c1.3,1.7,2.7,3.8,4.2,6.6l0.6-3.3c-3.5-7.5-6.8-12.5-10-15s-6-3.2-8.8-2c-2.7,1.1-5.3,3.6-7.7,7.5c-2.4,3.9-4.6,8.5-6.5,13.7
		c-4.6,12.3-8.7,28.8-12.2,49.5l13.3,9c0-0.1,0-0.2,0.1-0.2c0,0,0.1-0.2,0.1-0.4l0.3,0.9l19.8-39.7c-3.2,13-4.6,23.2-4.2,30.5
		s2.2,12.2,5.3,14.4s7.3,2.2,12.7-0.4c2.5-1.2,5.1-2.8,7.9-4.9l4.3,7.9c0.1,0.1,0.5,0.8,1.1,2s1.6,3,2.8,5l3.2,5.6
		c1.8,2.7,3.9,5.7,6.3,9c2.3,3.3,4.8,6.3,7.4,9.1c2.6,2.8,5.2,5.2,7.8,7c2.7,1.8,5.2,2.7,7.5,2.6c2.3-0.2,4.5-1.5,6.5-4.2
		c2-2.6,3.5-7,4.8-13C758.3,821.4,756.2,825,753.5,826.4z"/>
	<path d="M755.4,706.3c-2.1,2.8-4.4,5.5-7,8.2c-2.1,2.2-4.5,4.5-7.3,6.7c-2.8,2.3-5.8,4-9,5c2.7-0.4,5-0.9,7-1.4
		c2-0.5,3.7-1.2,5.1-1.8s2.7-1.3,3.8-2s2.2-1.4,3.2-2.1c-2,6-3.7,12.3-4.9,18.7c-1.3,6.4-2.3,12.2-3.1,17.4
		c-0.9,6.2-1.6,12.1-2.1,17.8l15.1,15.4c-0.3-7.2,0-14.7,1-22.8c0.8-6.8,2.3-14.6,4.4-23.2s5.3-17.6,9.7-26.7L755.4,706.3z"/>
	<path d="M761.8,686.3c0.8,2.2,1.5,4.4,2,6.5c0.5,2.5,0.9,5.1,1.2,7.8c1.6-3,3.3-5.8,5-8.5c1.4-2.2,3-4.3,4.8-6.2
		c1.8-1.9,3.5-3.1,5.2-3.6c-1.2-0.9-2.2-2.3-3.1-4.4c-0.8-2-1.5-4-2-6c-0.6-2.4-1.1-5-1.5-7.7c-1.8,2.7-3.6,5.2-5.4,7.5
		c-1.5,2-3.1,3.9-4.8,5.7c-1.7,1.8-3.2,3-4.6,3.6C759.8,682.4,761,684.1,761.8,686.3z"/>
	<path d="M816.1,719.8c-2.8-6.7-5.7-11.2-8.6-13.6c-2.9-2.4-5.8-3.3-8.8-2.7c-2.9,0.6-5.8,2.4-8.5,5.4s-5.3,6.7-7.8,11.1
		c-2.4,4.4-4.6,9.1-6.5,14.1c-1.9,5-3.5,9.8-4.7,14.4c-1.2,4.6-2,8.6-2.5,12.2s-0.4,5.9,0.2,7.2c0.9,2,1.8,3.6,2.6,4.8
		c0.8,1.2,1.6,2.1,2.4,2.7c3.3,5.8,6.6,9.7,9.7,11.6s6.2,2.4,9.1,1.6c2.9-0.8,5.7-2.8,8.3-6c2.6-3.1,5-6.8,7.1-11.1
		c2.1-4.3,4-8.8,5.6-13.7s2.9-9.5,3.9-14c1-4.4,1.6-8.3,1.9-11.7c0.3-3.4,0.1-5.7-0.5-7C818.1,723.1,817.1,721.2,816.1,719.8z
		 M802.8,744.6c-2.3,7.5-4.4,13.8-6.4,18.7c-2,4.9-3.9,8.7-5.7,11.3c-1.8,2.6-3.4,4.3-5,5.2s-3,1-4.2,0.4c-1.3-0.6-2.4-1.7-3.5-3.3
		c3.4-15.5,6.7-27.7,9.8-36.8c3.1-9,6-15.6,8.8-19.7c2.7-4.1,5.2-6.3,7.5-6.4s4.3,0.9,6.1,3.1C807.5,727.9,805,737,802.8,744.6z"/>
	<path d="M929.6,720.4c-3.8,1.7-7.7,3.5-11.6,5.4c-3.9,1.9-7.2,3.6-9.8,5c-0.8-1.6-1.4-2.9-1.8-3.9c-0.4-1-0.7-2.1-0.8-3.2
		c-0.2-2,0.2-4,1.3-5.8c1-1.8,2.3-3.5,3.7-4.9c1.6-1.7,3.4-3.3,5.4-4.7l-9.3-4.7c-1.9,0.7-3.7,1.7-5.4,2.9c-1.4,1.1-2.8,2.6-4.3,4.4
		s-2.5,4.2-3.2,7.1c-0.5,2-0.7,3.8-0.6,5.3c0.1,1.6,0.3,3,0.7,4.5c0.3,1.4,0.8,2.8,1.5,4.2c0.7,1.4,1.4,3,2.2,4.7
		c-3,1.8-6.3,4.3-9.9,7.4c-3.6,3.1-6.7,6.5-9.3,10.1c-2.7,3.6-4.4,7.3-5.3,11.1s-0.1,7.3,2.3,10.5c2.2,2.7,5.1,4.7,8.7,6
		c0.8,0.3,1.7,0.5,2.5,0.7c-2.9,1.5-5.4,2.3-7.3,2.2c-2.7-0.1-4.7-1.2-6-3.3s-2-5-2.1-8.8c-0.1-3.8,0.2-7.9,0.8-12.4
		c0.7-4.5,1.6-9.2,2.9-14s2.6-9.5,4.1-13.8c1.5-4.3,3-8.2,4.5-11.5c1.5-3.4,2.9-5.8,4.1-7.5l-14-9.7l-35.6,60.7
		c0.9-7,2.4-13.7,4.5-20c2.1-6.3,4.3-11.8,6.5-16.5c2.6-5.5,5.4-10.6,8.3-15.2l-13.3-9.2c-2.5,3.5-4.8,7.2-6.7,11.1
		c-2,3.9-3.7,7.8-5.1,11.7c-1.5,3.9-2.7,7.8-3.7,11.8c-1,3.9-1.8,7.7-2.6,11.2c-1.6,8.3-2.6,16.7-2.9,24.9l10.6,11l33.5-61.6
		c-4.4,15-7.1,27.5-8.1,37.4s-0.4,17.3,1.7,22.2c2.1,4.8,5.7,7.1,10.6,6.7c4.3-0.3,9.6-2.7,15.8-7.2c2.6,0.5,5.3,0.6,8,0.2
		c3.8-0.5,7.4-2.2,10.9-4.8c3.5-2.6,6.2-6.4,8.2-11.5c1.3-3.4,2-6.7,2-10s-0.3-6.3-1-9.1c-0.7-2.9-1.7-5.6-2.8-8.1s-2.3-4.8-3.4-7
		c2.1-1.3,5.1-3,9-5c3.9-2,7.7-4,11.5-6c4.4-2.3,9.1-4.7,14-7.1C938.7,716.5,934.1,718.5,929.6,720.4z M902.5,759.2
		c-0.2,5.2-1.3,9.3-3.2,12.2s-4.2,4.8-6.8,5.7c-2.6,1-5.2,1-7.8,0.3c-2.7-0.8-4.8-2.2-6.4-4.2c-1.7-2.1-2.2-4.7-1.5-7.8
		c0.7-3.1,2.2-6.3,4.3-9.5s4.8-6.3,7.9-9.3c3.1-3,6.3-5.5,9.7-7.5c1,2.4,2,5.3,2.9,8.8C902.3,751.3,902.7,755.1,902.5,759.2z"/>
	<path d="M275.7,581.5c-1.5-1.4-3.8-2.4-7.2-3c-3.3-0.7-7.6-1.2-12.8-1.8c-2.6-0.3-4.5-0.7-5.7-1.3c-1.2-0.6-1.9-1.2-2.2-2
		c-0.2-0.7,0-1.5,0.6-2.4c0.6-0.9,1.4-1.8,2.4-2.6c2.4-2,6-4.3,10.7-6.8c1.4,2.5,3,4.4,4.8,5.7c0.8,0.6,1.6,1,2.5,1.3
		c0.9,0.3,1.9,0.4,2.9,0.3c1-0.1,2.2-0.5,3.3-1.1c1.2-0.7,2.3-1.6,3.6-2.9c-1.2,0.1-2.3-0.2-3.4-0.8c-1-0.6-2-1.5-3-2.9
		c-1-1.4-2-3.5-2.8-6.4c-6.3,3.3-11.4,6.2-15.3,8.8c-4,2.6-7.1,5-9.3,7c-2.2,2-3.7,3.8-4.4,5.3c-0.7,1.5-0.9,2.8-0.6,3.9
		c0.3,1.1,1,2,2,2.7c1,0.7,2.2,1.3,3.5,1.7c1.3,0.4,2.7,0.7,4,0.8c1.3,0.2,2.4,0.2,3.3,0.2c1.1,0,2.4,0,4,0.1c1.5,0,3.1,0.2,4.7,0.4
		c1.6,0.2,3.1,0.5,4.5,0.9c1.4,0.4,2.6,1,3.5,1.7c0.9,0.7,1.5,1.6,1.8,2.7c0.3,1.1,0,2.4-0.8,3.9c-2.7,5.2-5.3,9.2-7.7,12.2
		c-2.5,2.9-4.8,5-7.1,6.2c-2.2,1.2-4.3,1.6-6.4,1.3c-2-0.3-3.9-1.1-5.7-2.3c-1.8-1.2-3.5-2.8-5-4.8c-1.5-1.9-3-4-4.3-6.1
		c2.8,6.2,5.8,10.4,8.9,12.8c3.2,2.4,6.4,3.2,9.7,2.5c3.3-0.7,6.7-2.7,10.1-6.1c3.4-3.4,6.7-7.8,10-13.2c2.5-4.1,4-7.4,4.5-9.8
		C277.7,584.7,277.2,582.9,275.7,581.5z"/>
	<path d="M311.7,584.8c-1.5,4-2.7,7.8-3.7,11.7c-0.9,3.8-1.6,7.6-2,11.3c-0.2,2.3-0.4,4.4-0.5,6.5c-0.6,0.2-1.1,0.2-1.6,0.2
		c-1.3,0-2.3-0.6-3-1.7s-1-2.5-1.1-4.4c0-1.9,0.1-4,0.4-6.3c0.3-2.3,0.8-4.7,1.4-7.1s1.3-4.8,2-7c0.7-2.2,1.5-4.2,2.3-5.9
		c0.8-1.7,1.5-3,2.1-3.8l-7-4.9c-0.6,1.6-1.1,3.2-1.6,4.8c-0.5,1.6-1,3.1-1.5,4.6c-1.3,3.3-2.6,6.2-4,8.8c-1.4,2.6-2.8,4.9-4.1,6.8
		c-1.3,2-2.6,3.6-3.8,5c-1.2,1.4-2.3,2.5-3.1,3.3c0.3-3.8,0.9-7.5,2-10.9c1.1-3.5,2.2-6.5,3.4-9.2c1.4-3.1,2.9-6,4.6-8.5l-6.7-4.7
		c-1.3,1.8-2.4,3.7-3.4,5.6c-1,2-1.8,3.9-2.6,5.9c-0.7,2-1.3,4-1.9,6c-0.5,2-0.9,3.9-1.3,5.7c-0.8,4.2-1.3,8.4-1.5,12.6l5.3,5.6
		c1.5-1.6,3.1-3.5,4.7-5.6c1.4-1.8,2.9-3.9,4.6-6.5c1.7-2.5,3.3-5.3,4.9-8.5c-1.2,5.5-1.7,9.9-1.6,13.5c0.1,3.5,0.8,6.1,2.1,7.6
		c1.2,1.5,3,2.1,5.3,1.6c1.3-0.3,2.9-0.9,4.6-1.9c0,1-0.1,2.1-0.1,3.1c-0.2,7.6,0.4,15.1,1.8,22.3l10.9,10.5
		c-1.4-2.2-2.6-4.8-3.5-7.9c-0.9-3.1-1.6-6.5-2-10.3s-0.5-7.8-0.3-12.2c0.2-4.3,0.8-8.8,1.7-13.5l0.8-1.5c1.3,2.5,2.5,4.5,3.7,5.9
		c0.6,0.8,1.2,1.4,1.8,1.8c1.7,1.3,3.3,1.7,4.7,1.2c1.4-0.5,2.7-1.8,3.8-3.8c1.2-2,2.2-4.3,3.1-7c2.1-6.2,3.8-14.5,5.2-25l-6.7-4.7
		c0,0.1,0,0.2,0,0.3c0,0.1,0,0.2,0,0.3l-11.8,18.9l-2,3.1c0.6-1.9,1.3-3.8,2-5.6c0.5-1.3,1-2.7,1.6-4c1.3-3.2,2.8-6.4,4.6-9.6
		l-6.2-3.6l-1-0.6C315.2,577,313.2,580.9,311.7,584.8z M318.5,599l11.1-19.1c-0.9,5.8-1.7,10.6-2.5,14.4c-0.8,3.8-1.6,6.8-2.4,9
		c-0.8,2.2-1.6,3.7-2.3,4.5c-0.8,0.8-1.5,1.1-2.3,1c-0.5-0.1-1.1-0.5-1.6-1c-0.2-0.2-0.4-0.4-0.6-0.7c-0.7-0.9-1.4-2.1-2.2-3.4
		L318.5,599z"/>
	<path d="M336.4,598.6c-0.3,1.9-0.3,3.8,0,5.6c0.2,1.8,0.8,3.5,1.7,5c0.8,1.5,2.2,2.8,3.9,3.8c1.1,0.7,2.2,1,3.2,1
		c1,0,1.9-0.3,2.8-0.8c0.8-0.5,1.7-1.2,2.4-2c0.8-0.8,1.5-1.8,2.1-2.8c1.4-2.3,2.7-5.2,3.8-8.5c-1,2.8-2.1,5.1-3.3,6.8
		c-0.5,0.8-1,1.4-1.7,2c-0.6,0.6-1.2,1-1.9,1.3c-0.7,0.3-1.3,0.3-2.1,0.2s-1.5-0.7-2.2-1.5c-1.2-1.3-1.8-3.1-2-5.5
		c-0.2-2.4,0.1-5,0.7-7.9c0.8-1,2-1.8,3.3-2.5c1.3-0.7,2.7-1.3,4.2-1.8c1.5-0.5,2.8-0.9,4.2-1.3c1.4-0.3,2.5-0.7,3.5-0.9
		c1-0.2,1.7-0.4,2.1-0.5s0.3-0.2-0.2-0.3h-0.4c-0.3,0-0.7,0-0.8-0.1c-1.3-0.3-2.2-1.2-2.7-2.5c-0.5-1.4-0.7-2.9-0.8-4.6
		s0.1-3.3,0.3-4.8c0.3-1.5,0.4-2.5,0.5-3.1l0.4-0.4l-0.4,0.2v-0.2l0.1-0.1l-0.6,0.5l-13,6.1c-2.7,4.9-4.8,9.6-6,14
		C337.1,594.7,336.7,596.6,336.4,598.6z M346.6,587.1c0.9-2.2,2.1-4.2,3.4-6.1c0,1.2,0.3,2.5,0.7,3.9c0.4,1.4,1.2,2.5,2.4,3.3
		c-2.2,1-3.9,2-5.3,2.9c-1.4,0.9-2.5,1.7-3.4,2.4C344.9,591.3,345.6,589.2,346.6,587.1z"/>
	<path d="M360.6,596.6c-0.8,4.2-1.3,8.4-1.5,12.6l3.4,3.5l2,2.1l0.6-2.6c0.9-3.3,2.1-6.6,3.4-9.7c1.4-3.1,2.8-5.9,4.3-8.6
		c1.5-2.7,3-5,4.5-7.2c1.5-2.2,2.8-3.9,4-5.3c-1.4,4.2-1.8,7.5-1.4,9.8c0.5,2.4,1.5,3.7,3.2,3.9c1.7,0.2,3.8-0.7,6.3-2.9
		c0.3-0.3,0.6-0.5,0.9-0.8c-0.1,0.5-0.2,0.9-0.2,1.3c-0.5,3.1-0.8,6-0.8,8.5s0.2,5,0.6,7.2c0.4,2.2,0.8,4.1,1.4,5.8
		c1.3,4,3.2,7.3,5.7,10c3.1-0.3,6.1-1,8.9-2.2c1.2-0.5,2.5-1.2,3.7-1.9s2.5-1.7,3.7-2.8c1.2-1.1,2.4-2.4,3.5-3.8
		c1.1-1.5,2-3.1,2.8-5c-2.5,2.9-4.8,5.2-6.8,6.7c-2.1,1.6-3.8,2.7-5.3,3.4c-1.7,0.8-3.3,1.3-4.7,1.5c-1.7-2.7-3-5.8-3.8-9.4
		c-0.3-1.5-0.7-3.3-0.9-5.2c-0.2-1.9-0.3-4-0.2-6.3s0.3-4.8,0.8-7.4c0.5-2.7,1.2-5.5,2.1-8.5c0.8-2.4,1.7-4.6,2.8-6.5
		c1.2-2,2.4-3.7,3.8-5.3c1.4-1.6,2.8-3,4.3-4.3s3-2.3,4.5-3.2c3.4-2.2,7-3.9,10.8-5.1c0.8,1.3,1.5,2.7,2,4.3c0.4,1.4,0.7,3,0.9,4.8
		s0.1,3.9-0.4,6.2c-0.3,1.3-0.7,2.4-1.1,3.2c-0.4,0.8-0.9,1.3-1.4,1.7c-0.5,0.3-1,0.5-1.5,0.5c-0.5,0-1-0.1-1.5-0.3
		c-1.2-0.5-2.4-1.5-3.7-3c1.6,2.2,3.2,3.7,4.7,4.5c0.6,0.3,1.3,0.6,2,0.7c0.7,0.1,1.3-0.1,2-0.5c0.7-0.4,1.2-1,1.8-2
		c0.6-0.9,1-2.3,1.5-4c0.8-3.5,1-6.6,0.5-9.3c-0.5-2.7-1.3-5.1-2.3-7c-1.2-2.3-2.6-4.3-4.3-6c-4.5,0.6-8.9,2-13.1,4.3
		c-1.8,1-3.6,2.3-5.5,3.7c-1.9,1.5-3.7,3.2-5.5,5.3c-1.8,2.1-3.5,4.5-5.1,7.3c-1.6,2.8-3,5.9-4.1,9.5c-0.7,2.2-1.3,4.3-1.8,6.2
		c-0.7,0.5-1.2,0.8-1.7,0.7c-0.7,0-1-0.5-1-1.4c0-0.9,0.1-2,0.3-3.3c0.3-1.3,0.7-2.5,1.2-3.8s1-2.3,1.5-3l-6.7-4.7l-0.3-0.2
		c0,0.2-0.1,0.5-0.2,0.8c-0.6,0.6-1.4,1.5-2.5,2.8c-1.1,1.3-2.4,3-4,5.2c-1.5,2.2-3.2,4.8-5,8s-3.6,6.8-5.5,11.1
		c0.3-3.3,1-6.3,2.1-9.1c1-2.8,2.1-5.2,3.1-7.3c1.3-2.4,2.7-4.6,4.1-6.6l-6.7-4.7c-1.3,1.8-2.4,3.7-3.4,5.6c-1,2-1.8,3.9-2.6,5.9
		c-0.5,1.2-0.9,2.5-1.2,3.7c-0.2,0.7-0.4,1.5-0.6,2.2C361.4,592.9,361,594.8,360.6,596.6z"/>
	<path d="M428.3,589c-1,2.5-1.8,5-2.4,7.3c-0.6,2.3-1,4.3-1.3,6.2c-0.2,1.8-0.2,3,0.1,3.7c0.5,1,0.9,1.8,1.3,2.4
		c0.4,0.6,0.8,1.1,1.2,1.4c1.7,3,3.3,4.9,4.9,5.9c1.6,1,3.2,1.2,4.6,0.8c1.5-0.4,2.9-1.4,4.2-3c1.3-1.6,2.5-3.5,3.6-5.6
		c1.1-2.2,2-4.5,2.8-7c0.8-2.5,1.5-4.8,2-7.1c0.5-2.2,0.8-4.2,1-5.9c0.1-1.7,0-2.9-0.3-3.5c-0.5-1.1-1-2-1.5-2.7
		c-1.4-3.3-2.9-5.7-4.3-6.9c-1.5-1.2-3-1.7-4.4-1.4c-1.5,0.3-2.9,1.2-4.3,2.7c-1.4,1.5-2.7,3.4-3.9,5.6
		C430.4,584.1,429.3,586.5,428.3,589z M438.7,582.1c1.4-2.1,2.6-3.2,3.8-3.2s2.2,0.5,3.1,1.6c-1.3,5.5-2.5,10.1-3.7,13.9
		s-2.2,7-3.2,9.5c-1,2.5-2,4.4-2.8,5.7c-0.9,1.3-1.7,2.2-2.5,2.6c-0.8,0.4-1.5,0.5-2.2,0.2s-1.2-0.8-1.8-1.7c1.7-7.8,3.4-14,5-18.6
		C435.9,587.5,437.3,584.2,438.7,582.1z"/>
	<path d="M450.6,606.1c0.5,1,0.9,1.8,1.3,2.4c0.4,0.6,0.8,1.1,1.2,1.4c1.7,3,3.3,4.9,4.9,5.9c1.6,1,3.2,1.2,4.6,0.8
		c1.5-0.4,2.9-1.4,4.2-3c1.3-1.6,2.5-3.5,3.6-5.6c1.1-2.2,2-4.5,2.8-7c0.8-2.5,1.5-4.8,2-7.1c0.5-2.2,0.8-4.2,1-5.9
		c0.1-1.7,0-2.9-0.3-3.5c-0.5-1.1-1-2-1.5-2.7c-1.4-3.3-2.9-5.7-4.3-6.9c-1.5-1.2-3-1.7-4.4-1.4c-1.5,0.3-2.9,1.2-4.3,2.7
		c-1.4,1.5-2.7,3.4-3.9,5.6c-1.2,2.2-2.3,4.6-3.3,7.2c-1,2.5-1.8,5-2.4,7.3c-0.6,2.3-1,4.3-1.3,6.2
		C450.3,604.3,450.3,605.5,450.6,606.1z M460.1,592.1c1.6-4.5,3-7.9,4.4-10c1.4-2.1,2.6-3.2,3.8-3.2c1.2-0.1,2.2,0.5,3.1,1.6
		c-1.3,5.5-2.5,10.1-3.7,13.9c-1.2,3.8-2.2,7-3.2,9.5s-2,4.4-2.8,5.7c-0.9,1.3-1.7,2.2-2.5,2.6c-0.8,0.4-1.5,0.5-2.2,0.2
		c-0.7-0.3-1.2-0.8-1.8-1.7C456.8,602.8,458.5,596.6,460.1,592.1z"/>
	<path d="M479.7,583.2c1.1-1.5,2.3-2.5,3.7-3c-1.3,4.7-2.3,8.9-3.2,12.5c-1,4.6-1.8,8.8-2.3,12.5l7,12.7c-0.3-0.8-0.5-1.7-0.8-2.6
		c-0.3-0.9-0.5-2.2-0.7-3.7c-0.1-1.5-0.1-3.5,0.2-5.9c0.2-2.4,0.7-5.5,1.5-9.2c0.8-3.7,2-8.2,3.5-13.6c0.2-0.8,0.5-1.6,0.7-2.4
		c0.5,0.2,1,0.5,1.5,0.8c2.2,1.3,4.1,3.1,5.8,5.4c-2,3.5-3.7,6.9-5,10.3c-1.3,3.4-2,6.7-2.2,9.8c-0.1,3.1,0.5,5.9,1.9,8.5
		c1.4,2.6,3.7,4.8,7.1,6.5c-0.2-0.9-0.4-2.1-0.8-3.7c-0.4-1.6-0.6-3.5-0.7-5.8c0-2.3,0.2-5,0.8-8c0.6-3.1,1.8-6.5,3.7-10.4
		c1.7,1.9,3.6,3.3,5.6,4c2,0.8,3.9,1.2,5.8,1.2c1.9,0,3.7-0.2,5.4-0.7c1.7-0.5,3.1-0.9,4.3-1.5c-0.3,3.9-0.6,7.7-0.6,11.4
		c0,3.7,0.1,7.2,0.5,10.5c0.4,3.2,1,6.1,2,8.6c0.9,2.5,2.2,4.4,3.7,5.7c1.6,1.3,3.6,2,5.9,1.9s5.2-1,8.4-2.7
		c-2.7,1.1-4.9,1.6-6.9,1.3c-1.9-0.2-3.6-1-4.9-2.3c-1.3-1.3-2.4-3-3.2-5.2s-1.4-4.7-1.8-7.5s-0.6-5.9-0.7-9.2s0.1-6.6,0.3-10
		c0.8-12.1,3-26.4,6.7-43l-9.5-1.9c-2.7,2.7-5.5,5.6-8.2,8.7c-2.4,2.7-5,5.7-7.7,9.2c-2.7,3.5-5.3,7.1-7.8,10.9
		c-2.2-3-4.6-5-7.3-5.9c-0.4-0.1-0.7-0.2-1.1-0.3c1.3-4,2.7-8.5,4.4-13.4c0.8-2.4,1.7-4.5,2.5-6.1c0.9-1.6,1.8-2.9,2.6-3.9
		s1.7-1.7,2.5-2.2c0.8-0.5,1.6-0.8,2.3-1c1.7-0.3,3.3,0.2,5,1.5c-2.2-2.5-4.5-3.9-7-4.3c-1-0.2-2.1-0.1-3.2,0.2
		c-1.1,0.3-2.3,1-3.4,2c-1.2,1-2.3,2.5-3.5,4.4c-1.2,1.9-2.3,4.4-3.4,7.4c-2,5.6-3.7,10.8-5.1,15.6h0c-2.3,0.9-4.1,2.6-5.5,5.2
		c-1.4,2.6-1.9,5.8-1.6,9.7C477.4,588.2,478.3,585.2,479.7,583.2z M512.7,576.6c4-5.1,9.3-10.7,15.8-16.8c-0.3,1.2-0.6,3-1.1,5.2
		c-0.5,2.2-1,4.8-1.5,7.8c-0.5,3-1.1,6.2-1.6,9.6c-0.5,3.5-1,7-1.3,10.6c-1,0.6-2.2,1.2-3.8,1.8c-1.6,0.7-3.3,1-5.1,1.2
		c-1.8,0.1-3.7-0.2-5.6-0.9c-1.9-0.7-3.7-2.2-5.3-4.4C505.5,586.4,508.7,581.7,512.7,576.6z"/>
	<path d="M530,608.8l5.3,5.6l14.4-24.9c-0.6,2.6-0.9,5-1.2,7.3c-0.2,2.3-0.3,4.3-0.4,6.2c0,2.1,0,4,0.2,5.8l5.3,5.6
		c5.8-13.1,11.3-23.8,16.6-32.1c2.2-3.6,4.5-6.8,6.8-9.6c2.3-2.8,4.6-4.9,6.8-6.2c2.2-1.2,4.2-1.5,6.1-0.7c1.8,0.8,3.5,3.1,4.8,6.9
		c-1-3.9-2.2-6.6-3.6-8.2c-1.5-1.6-3-2.4-4.8-2.3c-1.7,0.1-3.6,0.8-5.5,2.3c-2,1.5-3.9,3.4-5.9,5.7s-3.9,5-5.8,7.9
		c-1.9,2.9-3.8,5.8-5.5,8.8s-3.2,5.8-4.6,8.4c-1.4,2.7-2.5,4.9-3.4,6.8c0.4-3.3,1-6.5,1.8-9.5c0.8-3,1.6-5.6,2.4-7.8
		c0.9-2.6,1.9-5,3-7.2l-6.3-4.3c-0.7,1-1.3,2-2,3c-0.6,1-1.1,2.1-1.7,3.1l-15.4,24.7c0.4-3.6,1.2-7,2.2-10.2c1.1-3.2,2.2-6,3.3-8.5
		c1.3-2.8,2.7-5.4,4.3-7.8l-6.7-4.6c-1.3,1.8-2.4,3.7-3.4,5.6c-1,1.9-1.8,3.9-2.6,5.9c-0.7,2-1.3,4-1.9,6c-0.5,2-0.9,3.9-1.3,5.7
		C530.6,600.4,530.2,604.6,530,608.8z"/>
	<path d="M596,585.8c0.2,0.7,0.4,1.4,0.8,2.2c0.3,0.7,0.7,1.5,1.1,2.4c-1.5,0.9-3.2,2.2-5,3.7c-1.8,1.6-3.4,3.3-4.7,5.1
		c-1.3,1.8-2.2,3.7-2.7,5.6c0,0,0,0.1,0,0.1c-0.3,0.6-0.7,1.2-1,1.7c-0.5,0.8-1,1.4-1.7,2c-0.6,0.6-1.2,1-1.9,1.3
		c-0.7,0.3-1.3,0.3-2.1,0.2c-0.7-0.2-1.5-0.7-2.2-1.5c-1.2-1.3-1.8-3.1-2-5.5c-0.2-2.4,0.1-5,0.7-7.9c0.8-1,2-1.8,3.3-2.5
		c1.3-0.7,2.7-1.3,4.2-1.8c1.5-0.5,2.8-0.9,4.2-1.3c1.4-0.3,2.5-0.7,3.5-0.9s1.7-0.4,2.1-0.5c0.4-0.1,0.3-0.2-0.2-0.3h-0.4
		c-0.3,0-0.7,0-0.8-0.1c-1.3-0.3-2.2-1.2-2.7-2.5c-0.5-1.4-0.7-2.9-0.8-4.6c0-1.7,0.1-3.3,0.3-4.8c0.3-1.5,0.4-2.5,0.5-3.1l0.4-0.4
		l-0.4,0.2v-0.2l0.1-0.1l-0.6,0.5l-13,6.1c-2.7,4.9-4.8,9.6-6,14c-0.6,1.9-1,3.8-1.2,5.7c-0.3,1.9-0.3,3.8,0,5.6
		c0.2,1.8,0.8,3.5,1.7,5c0.8,1.5,2.2,2.8,3.9,3.8c1.1,0.7,2.2,1,3.2,1c1,0,1.9-0.3,2.8-0.8c0.8-0.5,1.7-1.2,2.4-2
		c0.8-0.8,1.5-1.8,2.1-2.8c0.5-0.8,1-1.7,1.4-2.6c-0.2,1.5,0.3,3,1.3,4.4c1.1,1.4,2.6,2.4,4.4,3c1.8,0.7,3.7,0.8,5.6,0.5
		c1.9-0.3,3.7-1.1,5.5-2.4c1.8-1.3,3.2-3.3,4.2-5.8c0.7-1.7,1-3.4,1-5c0-1.6-0.2-3.2-0.5-4.6c-0.3-1.5-0.8-2.8-1.4-4.1
		c-0.6-1.3-1.2-2.5-1.7-3.5c1.1-0.7,2.6-1.5,4.5-2.5c2-1,3.9-2,5.8-3c0.7-0.4,1.5-0.8,2.2-1.2c-0.1,0.2-0.2,0.3-0.2,0.4
		c-1.2,2.2-2.3,4.6-3.3,7.2c-1,2.5-1.8,5-2.4,7.3c-0.6,2.3-1,4.3-1.3,6.2c-0.2,1.8-0.2,3,0.1,3.7c0.5,1,0.9,1.8,1.3,2.4
		c0.4,0.6,0.8,1.1,1.2,1.4c1.7,3,3.3,4.9,4.9,5.9c1.6,1,3.2,1.2,4.6,0.8c1.5-0.4,2.9-1.4,4.2-3s2.5-3.5,3.6-5.6c1.1-2.2,2-4.5,2.8-7
		c0.8-2.5,1.5-4.8,2-7.1c0.5-2.2,0.8-4.2,1-5.9c0.1-1.7,0-2.9-0.3-3.5c-0.5-1.1-1-2-1.5-2.7c-1.4-3.3-2.9-5.7-4.3-6.9
		c-1.5-1.2-3-1.7-4.4-1.4c-1.5,0.3-2.9,1.2-4.3,2.7c-1.2,1.3-2.4,2.9-3.5,4.8c-0.8,0.3-1.6,0.7-2.4,1c-1.9,0.9-3.9,1.8-5.9,2.7
		s-3.7,1.8-5,2.5c-0.4-0.8-0.7-1.5-0.9-2c-0.2-0.5-0.3-1-0.4-1.6c-0.1-1,0.1-2,0.7-2.9c0.5-0.9,1.2-1.8,1.9-2.5
		c0.8-0.8,1.7-1.7,2.7-2.4l-4.7-2.4c-1,0.3-1.9,0.8-2.7,1.5c-0.7,0.6-1.4,1.3-2.2,2.2c-0.7,0.9-1.3,2.1-1.7,3.6
		c-0.3,1-0.3,1.9-0.3,2.7C595.7,584.4,595.9,585.1,596,585.8z M578.1,587.1c0.9-2.2,2.1-4.2,3.4-6.1c0,1.2,0.3,2.5,0.7,3.9
		c0.4,1.4,1.2,2.5,2.4,3.3c-2.2,1-3.9,2-5.3,2.9c-1.4,0.9-2.5,1.7-3.4,2.4C576.4,591.3,577.2,589.2,578.1,587.1z M626.9,578.8
		c1.2-0.1,2.2,0.5,3.1,1.6c-1.3,5.5-2.5,10.1-3.7,13.9s-2.2,7-3.2,9.5c-1,2.5-2,4.4-2.8,5.7c-0.9,1.3-1.7,2.2-2.5,2.6
		c-0.8,0.4-1.5,0.5-2.2,0.2s-1.2-0.8-1.8-1.7c1.7-7.8,3.4-14,5-18.6c1.6-4.5,3-7.9,4.4-10C624.6,580,625.8,578.9,626.9,578.8z
		 M599.9,595.9c0.5,1.8,0.7,3.7,0.5,5.8c-0.1,2.7-0.7,4.7-1.7,6.2c-1,1.5-2.2,2.4-3.4,2.9c-1.3,0.5-2.6,0.5-4,0.2
		c-1.3-0.4-2.4-1.1-3.2-2.1c-0.8-1.1-1.1-2.4-0.8-4c0.3-1.6,1.1-3.2,2.2-4.8c1.1-1.6,2.4-3.2,4-4.7c1.6-1.5,3.2-2.8,4.9-3.8
		C598.9,592.7,599.4,594.2,599.9,595.9z"/>
	<path d="M653.2,592.9c-0.6,2.3-1,4.4-1.3,6.5c-0.3,2-0.5,3.8-0.7,5.2c-0.2,1.7-0.3,3.3-0.3,4.8l5.3,5.7l1.9-3.6v-0.2l10.5-20.9
		c-1.6,6.3-2.4,11.5-2.5,15.6c-0.1,4.1,0.5,7.1,1.7,9c1.2,1.9,3,2.7,5.4,2.3c2.4-0.3,5.3-1.9,8.8-4.6c-2.2,1.4-4,2.1-5.3,2.1
		c-1.3,0-2.3-0.6-3-1.7c-0.7-1.1-1-2.5-1.1-4.4c0-1.9,0.1-4,0.4-6.3c0.3-2.3,0.8-4.7,1.5-7.1c0.7-2.4,1.3-4.8,2.1-7
		c0.7-2.2,1.5-4.2,2.3-5.9c0.8-1.7,1.5-3,2.1-3.8l-7-4.9c-0.2,0.5-0.4,1-0.5,1.5l-14.7,28.5c0.5-3.5,1.3-6.8,2.3-9.8
		c1-3,2.1-5.7,3.2-8c1.3-2.7,2.7-5.2,4.1-7.5l-6.8-4.7c-0.7,1-1.3,2-2,3.1c-0.6,1-1.2,2.1-1.7,3.2l-14.6,24.4
		c0.4-3.6,1.2-6.9,2.3-10.1c1.1-3.2,2.2-6,3.3-8.4c1.3-2.8,2.7-5.4,4.2-7.8l-6.7-4.7c-1.3,1.8-2.4,3.7-3.4,5.6c-1,2-1.8,3.9-2.6,5.9
		s-1.3,4-1.9,6c-0.5,2-0.9,3.9-1.3,5.7c-0.8,4.2-1.3,8.4-1.5,12.6l5.3,5.6L653.2,592.9z"/>
	<path d="M678.6,598.6c-0.3,1.9-0.3,3.8,0,5.6c0.2,1.8,0.8,3.5,1.7,5c0.8,1.5,2.2,2.8,3.9,3.8c1.1,0.7,2.2,1,3.2,1
		c1,0,1.9-0.3,2.8-0.8c0.8-0.5,1.7-1.2,2.4-2c0.8-0.8,1.5-1.8,2.1-2.8c1.4-2.3,2.7-5.2,3.8-8.5c-1,2.8-2.1,5.1-3.3,6.8
		c-0.5,0.8-1,1.4-1.7,2c-0.6,0.6-1.2,1-1.9,1.3c-0.7,0.3-1.3,0.3-2.1,0.2c-0.7-0.2-1.5-0.7-2.2-1.5c-1.2-1.3-1.8-3.1-2-5.5
		c-0.2-2.4,0.1-5,0.7-7.9c0.8-1,2-1.8,3.3-2.5c1.3-0.7,2.7-1.3,4.2-1.8c1.5-0.5,2.8-0.9,4.2-1.3c1.4-0.3,2.5-0.7,3.5-0.9
		c1-0.2,1.7-0.4,2.1-0.5c0.4-0.1,0.3-0.2-0.2-0.3h-0.4c-0.3,0-0.7,0-0.8-0.1c-1.3-0.3-2.2-1.2-2.7-2.5c-0.5-1.4-0.7-2.9-0.8-4.6
		s0.1-3.3,0.3-4.8c0.3-1.5,0.4-2.5,0.5-3.1l0.4-0.4l-0.4,0.2v-0.2l0.1-0.1l-0.6,0.5l-13,6.1c-2.7,4.9-4.8,9.6-6,14
		C679.3,594.7,678.9,596.6,678.6,598.6z M688.8,587.1c0.9-2.2,2.1-4.2,3.4-6.1c0,1.2,0.3,2.5,0.7,3.9c0.4,1.4,1.2,2.5,2.4,3.3
		c-2.2,1-3.9,2-5.3,2.9c-1.4,0.9-2.5,1.7-3.4,2.4C687.1,591.3,687.8,589.2,688.8,587.1z"/>
</g>
</svg>
